<svg width="72" height="72" viewBox="0 0 72 72" fill="none" xmlns="http://www.w3.org/2000/svg">
  <g id="profiles-core-small">
    <path d="M10.8 15.6C10.8 12.95 12.95 10.8 15.6 10.8H40.8C43.45 10.8 45.6 12.95 45.6 15.6V40.8C45.6 43.45 43.45 45.6 40.8 45.6H15.6C12.95 45.6 10.8 43.45 10.8 40.8V15.6Z" fill="url(#paint0_radial)"/>
    <path d="M9.6 14.4C9.6 11.75 11.75 9.6 14.4 9.6H39.6C42.25 9.6 44.4 11.75 44.4 14.4V39.6C44.4 42.25 42.25 44.4 39.6 44.4H14.4C11.75 44.4 9.6 42.25 9.6 39.6V14.4Z" fill="url(#paint1_radial)"/>
    <path d="M18.6 21.9C18.6 23.06 17.66 24 16.5 24C15.34 24 14.4 23.06 14.4 21.9C14.4 20.74 15.34 19.8 16.5 19.8C17.66 19.8 18.6 20.74 18.6 21.9Z" fill="url(#paint2_radial)"/>
    <path d="M39.6 21.9C39.6 23.06 38.66 24 37.5 24C36.34 24 35.4 23.06 35.4 21.9C35.4 20.74 36.34 19.8 37.5 19.8C38.66 19.8 39.6 20.74 39.6 21.9Z" fill="url(#paint3_radial)"/>
    <path d="M27.6 32.4C27.6 29.75 29.75 27.6 32.4 27.6H57.6C60.25 27.6 62.4 29.75 62.4 32.4V57.6C62.4 60.25 60.25 62.4 57.6 62.4H32.4C29.75 62.4 27.6 60.25 27.6 57.6V32.4Z" fill="url(#paint4_radial)"/>
  </g>
  <defs>
    <radialGradient id="paint0_radial" cx="0" cy="0" r="1" gradientUnits="userSpaceOnUse" gradientTransform="translate(39.075 17.6882) rotate(135) scale(32.8097)">
      <stop stop-color="#99421D"/>
      <stop offset="0.333" stop-color="#99161D"/>
      <stop offset="0.666" stop-color="#7D1845"/>
      <stop offset="1" stop-color="#59216E"/>
    </radialGradient>
    <radialGradient id="paint1_radial" cx="0" cy="0" r="1" gradientUnits="userSpaceOnUse" gradientTransform="translate(62.4 8.7) rotate(133.87) scale(75.3216)">
      <stop stop-color="#FFDCCC"/>
      <stop offset="0.333" stop-color="#FFBDC0"/>
      <stop offset="0.666" stop-color="#F89DC6"/>
      <stop offset="1" stop-color="#E4A1FA"/>
    </radialGradient>
    <radialGradient id="paint2_radial" cx="0" cy="0" r="1" gradientUnits="userSpaceOnUse" gradientTransform="translate(60.3 11.1) rotate(133.939) scale(68.7426)">
      <stop stop-color="#99421D"/>
      <stop offset="0.333" stop-color="#99161D"/>
      <stop offset="0.666" stop-color="#7D1845"/>
      <stop offset="1" stop-color="#59216E"/>
    </radialGradient>
    <radialGradient id="paint3_radial" cx="0" cy="0" r="1" gradientUnits="userSpaceOnUse" gradientTransform="translate(60.3 11.1) rotate(133.939) scale(68.7426)">
      <stop stop-color="#99421D"/>
      <stop offset="0.333" stop-color="#99161D"/>
      <stop offset="0.666" stop-color="#7D1845"/>
      <stop offset="1" stop-color="#59216E"/>
    </radialGradient>
    <radialGradient id="paint4_radial" cx="0" cy="0" r="1" gradientUnits="userSpaceOnUse" gradientTransform="translate(61.8 29.7) rotate(135) scale(43.2749)">
      <stop stop-color="#EF7744"/>
      <stop offset="0.333" stop-color="#E50914"/>
      <stop offset="0.666" stop-color="#A70D53"/>
      <stop offset="1" stop-color="#792A95"/>
    </radialGradient>
  </defs>
</svg>
